<svg xmlns="http://www.w3.org/2000/svg" viewBox="0 0 68 68">
  <!-- Building/Office icon in white for dark backgrounds -->
  <g transform="translate(14, 12)">
    <!-- Main building -->
    <rect x="8" y="8" width="24" height="32" fill="#f8fafc" stroke="#ffffff" stroke-width="2" rx="2"/>
    
    <!-- Building floors/windows -->
    <rect x="12" y="12" width="4" height="3" fill="#ffffff" rx="0.5"/>
    <rect x="20" y="12" width="4" height="3" fill="#ffffff" rx="0.5"/>
    <rect x="28" y="12" width="4" height="3" fill="#ffffff" rx="0.5"/>
    
    <rect x="12" y="18" width="4" height="3" fill="#ffffff" rx="0.5"/>
    <rect x="20" y="18" width="4" height="3" fill="#ffffff" rx="0.5"/>
    <rect x="28" y="18" width="4" height="3" fill="#ffffff" rx="0.5"/>
    
    <rect x="12" y="24" width="4" height="3" fill="#ffffff" rx="0.5"/>
    <rect x="20" y="24" width="4" height="3" fill="#ffffff" rx="0.5"/>
    <rect x="28" y="24" width="4" height="3" fill="#ffffff" rx="0.5"/>
    
    <!-- Entrance door -->
    <rect x="18" y="32" width="6" height="8" fill="#ffffff" rx="1"/>
    <circle cx="21" cy="36" r="0.8" fill="#374151"/>
    
    <!-- Left wing -->
    <rect x="0" y="16" width="8" height="24" fill="#f8fafc" stroke="#ffffff" stroke-width="2" rx="1"/>
    <rect x="2" y="20" width="2.5" height="2" fill="#ffffff" rx="0.3"/>
    <rect x="2" y="26" width="2.5" height="2" fill="#ffffff" rx="0.3"/>
    <rect x="2" y="32" width="2.5" height="2" fill="#ffffff" rx="0.3"/>
    
    <!-- Right wing -->
    <rect x="32" y="16" width="8" height="24" fill="#f8fafc" stroke="#ffffff" stroke-width="2" rx="1"/>
    <rect x="35.5" y="20" width="2.5" height="2" fill="#ffffff" rx="0.3"/>
    <rect x="35.5" y="26" width="2.5" height="2" fill="#ffffff" rx="0.3"/>
    <rect x="35.5" y="32" width="2.5" height="2" fill="#ffffff" rx="0.3"/>
  </g>
  
  <!-- Business growth arrow -->
  <g transform="translate(42, 42)">
    <path d="M 0 12 L 8 4 L 16 8 L 20 0" stroke="#ffffff" stroke-width="3" fill="none" stroke-linecap="round" stroke-linejoin="round"/>
    <path d="M 16 0 L 20 0 L 20 4" stroke="#ffffff" stroke-width="3" fill="none" stroke-linecap="round" stroke-linejoin="round"/>
  </g>
</svg>
