<svg xmlns="http://www.w3.org/2000/svg" viewBox="0 0 68 68">
  <!-- Simplified building icon for small size -->
  <g transform="translate(20, 18)">
    <!-- Main building -->
    <rect x="4" y="4" width="20" height="24" fill="#f8fafc" stroke="#1e40af" stroke-width="2" rx="1.5"/>
    
    <!-- Windows -->
    <rect x="8" y="8" width="3" height="2.5" fill="#1e40af" rx="0.3"/>
    <rect x="13" y="8" width="3" height="2.5" fill="#1e40af" rx="0.3"/>
    <rect x="18" y="8" width="3" height="2.5" fill="#1e40af" rx="0.3"/>
    
    <rect x="8" y="13" width="3" height="2.5" fill="#1e40af" rx="0.3"/>
    <rect x="13" y="13" width="3" height="2.5" fill="#1e40af" rx="0.3"/>
    <rect x="18" y="13" width="3" height="2.5" fill="#1e40af" rx="0.3"/>
    
    <rect x="8" y="18" width="3" height="2.5" fill="#1e40af" rx="0.3"/>
    <rect x="13" y="18" width="3" height="2.5" fill="#1e40af" rx="0.3"/>
    <rect x="18" y="18" width="3" height="2.5" fill="#1e40af" rx="0.3"/>
    
    <!-- Entrance -->
    <rect x="11" y="22" width="6" height="6" fill="#1e40af" rx="0.8"/>
    <circle cx="14" cy="25" r="0.5" fill="#ffffff"/>
  </g>
  
  <!-- Small growth indicator -->
  <g transform="translate(42, 42)">
    <path d="M 0 8 L 4 4 L 8 6 L 10 2" stroke="#1e40af" stroke-width="2.5" fill="none" stroke-linecap="round" stroke-linejoin="round"/>
    <path d="M 8 2 L 10 2 L 10 4" stroke="#1e40af" stroke-width="2.5" fill="none" stroke-linecap="round" stroke-linejoin="round"/>
  </g>
</svg>
